<?xml version="1.0" encoding="UTF-8" standalone="no"?>
<!-- Created with Inkscape (http://www.inkscape.org/) -->

<svg
   xmlns:dc="http://purl.org/dc/elements/1.1/"
   xmlns:cc="http://creativecommons.org/ns#"
   xmlns:rdf="http://www.w3.org/1999/02/22-rdf-syntax-ns#"
   xmlns:svg="http://www.w3.org/2000/svg"
   xmlns="http://www.w3.org/2000/svg"
   xmlns:xlink="http://www.w3.org/1999/xlink"
   xmlns:sodipodi="http://sodipodi.sourceforge.net/DTD/sodipodi-0.dtd"
   xmlns:inkscape="http://www.inkscape.org/namespaces/inkscape"
   width="1100mm"
   height="270mm"
   viewBox="0 0 3897.6377 956.69289"
   id="svg2"
   version="1.1"
   inkscape:version="0.91 r13725"
   sodipodi:docname="morse_torus.svg">
  <defs
     id="defs4">
    <inkscape:path-effect
       effect="spiro"
       id="path-effect4243"
       is_visible="true" />
    <inkscape:path-effect
       effect="spiro"
       id="path-effect4229"
       is_visible="true" />
    <inkscape:path-effect
       effect="spiro"
       id="path-effect4225"
       is_visible="true" />
    <inkscape:path-effect
       effect="spiro"
       id="path-effect4221"
       is_visible="true" />
    <inkscape:path-effect
       is_visible="true"
       id="path-effect4209"
       effect="spiro" />
    <inkscape:path-effect
       is_visible="true"
       id="path-effect4193"
       effect="spiro" />
    <inkscape:path-effect
       is_visible="true"
       id="path-effect4189"
       effect="spiro" />
    <inkscape:path-effect
       is_visible="true"
       id="path-effect4174"
       effect="spiro" />
    <inkscape:path-effect
       effect="spiro"
       id="path-effect4258"
       is_visible="true" />
    <inkscape:path-effect
       is_visible="true"
       id="path-effect4242"
       effect="spiro" />
    <linearGradient
       inkscape:collect="always"
       id="linearGradient4232">
      <stop
         style="stop-color:#006200;stop-opacity:1;"
         offset="0"
         id="stop4234" />
      <stop
         style="stop-color:#006200;stop-opacity:0;"
         offset="1"
         id="stop4236" />
    </linearGradient>
    <inkscape:path-effect
       effect="spiro"
       id="path-effect4214"
       is_visible="true" />
    <inkscape:path-effect
       effect="spiro"
       id="path-effect4210"
       is_visible="true" />
    <linearGradient
       inkscape:collect="always"
       id="linearGradient4190">
      <stop
         style="stop-color:#006200;stop-opacity:1;"
         offset="0"
         id="stop4192" />
      <stop
         style="stop-color:#006200;stop-opacity:0;"
         offset="1"
         id="stop4194" />
    </linearGradient>
    <inkscape:path-effect
       effect="spiro"
       id="path-effect4186"
       is_visible="true" />
    <inkscape:path-effect
       effect="spiro"
       id="path-effect4178"
       is_visible="true" />
    <linearGradient
       inkscape:collect="always"
       id="linearGradient4152">
      <stop
         style="stop-color:#006200;stop-opacity:1;"
         offset="0"
         id="stop4154" />
      <stop
         style="stop-color:#006200;stop-opacity:0;"
         offset="1"
         id="stop4156" />
    </linearGradient>
    <inkscape:path-effect
       effect="spiro"
       id="path-effect4148"
       is_visible="true" />
    <linearGradient
       inkscape:collect="always"
       xlink:href="#linearGradient4152"
       id="linearGradient4158"
       x1="122.84166"
       y1="446.75928"
       x2="302.11063"
       y2="446.75928"
       gradientUnits="userSpaceOnUse"
       gradientTransform="translate(-80.158006,377.70063)" />
    <linearGradient
       inkscape:collect="always"
       xlink:href="#linearGradient4152"
       id="linearGradient4166"
       x1="121.42857"
       y1="710.93365"
       x2="302.85715"
       y2="710.93365"
       gradientUnits="userSpaceOnUse"
       gradientTransform="translate(-344.12769,69.432933)" />
    <linearGradient
       inkscape:collect="always"
       xlink:href="#linearGradient4152"
       id="linearGradient4170"
       gradientUnits="userSpaceOnUse"
       gradientTransform="translate(-916.53097,-89.928973)"
       x1="121.42857"
       y1="710.93365"
       x2="302.85715"
       y2="710.93365" />
    <linearGradient
       inkscape:collect="always"
       xlink:href="#linearGradient4152"
       id="linearGradient4174"
       gradientUnits="userSpaceOnUse"
       gradientTransform="translate(-1230.2621,-89.928983)"
       x1="121.42857"
       y1="710.93365"
       x2="302.85715"
       y2="710.93365" />
    <linearGradient
       inkscape:collect="always"
       xlink:href="#linearGradient4190"
       id="linearGradient4196"
       x1="365.29636"
       y1="412.76178"
       x2="859.72076"
       y2="412.76178"
       gradientUnits="userSpaceOnUse"
       gradientTransform="translate(247.84927,327.04942)" />
    <linearGradient
       inkscape:collect="always"
       xlink:href="#linearGradient4232"
       id="linearGradient4238"
       x1="1857.0428"
       y1="712.36224"
       x2="2474.3857"
       y2="712.36224"
       gradientUnits="userSpaceOnUse"
       gradientTransform="translate(1350.1918,-118.99495)" />
    <linearGradient
       inkscape:collect="always"
       xlink:href="#linearGradient4232"
       id="linearGradient4289"
       gradientUnits="userSpaceOnUse"
       gradientTransform="matrix(1.0107341,0,0,0.9081133,-3248.5953,-82.279071)"
       x1="928.33167"
       y1="463.42297"
       x2="1352.7958"
       y2="463.42297" />
    <linearGradient
       inkscape:collect="always"
       xlink:href="#linearGradient4232"
       id="linearGradient4331"
       x1="824.46222"
       y1="-276.22598"
       x2="1434.7725"
       y2="-276.22598"
       gradientUnits="userSpaceOnUse"
       gradientTransform="translate(965.98277,877.64297)" />
    <linearGradient
       inkscape:collect="always"
       xlink:href="#linearGradient4152"
       id="linearGradient4179"
       gradientUnits="userSpaceOnUse"
       gradientTransform="translate(-618.88917,65.392248)"
       x1="121.42857"
       y1="710.93365"
       x2="302.85715"
       y2="710.93365" />
    <linearGradient
       inkscape:collect="always"
       xlink:href="#linearGradient4152"
       id="linearGradient4181"
       gradientUnits="userSpaceOnUse"
       gradientTransform="translate(194.60345,373.65997)"
       x1="122.84166"
       y1="446.75928"
       x2="302.11063"
       y2="446.75928" />
    <linearGradient
       inkscape:collect="always"
       xlink:href="#linearGradient4152"
       id="linearGradient4197"
       gradientUnits="userSpaceOnUse"
       gradientTransform="translate(-1486.257,-89.929023)"
       x1="121.42857"
       y1="710.93365"
       x2="302.85715"
       y2="710.93365" />
    <linearGradient
       inkscape:collect="always"
       xlink:href="#linearGradient4152"
       id="linearGradient4199"
       gradientUnits="userSpaceOnUse"
       gradientTransform="translate(-1799.9881,-89.929033)"
       x1="121.42857"
       y1="710.93365"
       x2="302.85715"
       y2="710.93365" />
    <linearGradient
       inkscape:collect="always"
       xlink:href="#linearGradient4190"
       id="linearGradient4201"
       gradientUnits="userSpaceOnUse"
       gradientTransform="translate(817.57527,327.04937)"
       x1="365.29636"
       y1="412.76178"
       x2="859.72076"
       y2="412.76178" />
    <linearGradient
       inkscape:collect="always"
       xlink:href="#linearGradient4232"
       id="linearGradient4211"
       gradientUnits="userSpaceOnUse"
       gradientTransform="matrix(1.0107341,0,0,0.9081133,-3963.7833,-58.035496)"
       x1="928.33167"
       y1="463.42297"
       x2="1352.7958"
       y2="463.42297" />
    <linearGradient
       inkscape:collect="always"
       xlink:href="#linearGradient4232"
       id="linearGradient4213"
       gradientUnits="userSpaceOnUse"
       gradientTransform="translate(1681.1707,901.88655)"
       x1="824.46222"
       y1="-276.22598"
       x2="1434.7725"
       y2="-276.22598" />
    <linearGradient
       inkscape:collect="always"
       xlink:href="#linearGradient4152"
       id="linearGradient4239"
       x1="1795.3604"
       y1="310.79828"
       x2="2172.5188"
       y2="310.79828"
       gradientUnits="userSpaceOnUse"
       gradientTransform="translate(827.65227,-87.913003)" />
  </defs>
  <sodipodi:namedview
     id="base"
     pagecolor="#ffffff"
     bordercolor="#666666"
     borderopacity="1.0"
     inkscape:pageopacity="0.0"
     inkscape:pageshadow="2"
     inkscape:zoom="0.24748737"
     inkscape:cx="2008.5619"
     inkscape:cy="564.46475"
     inkscape:document-units="px"
     inkscape:current-layer="layer1"
     showgrid="false"
     width="400mm"
     inkscape:window-width="1440"
     inkscape:window-height="856"
     inkscape:window-x="0"
     inkscape:window-y="0"
     inkscape:window-maximized="1" />
  <metadata
     id="metadata7">
    <rdf:RDF>
      <cc:Work
         rdf:about="">
        <dc:format>image/svg+xml</dc:format>
        <dc:type
           rdf:resource="http://purl.org/dc/dcmitype/StillImage" />
        <dc:title></dc:title>
      </cc:Work>
    </rdf:RDF>
  </metadata>
  <g
     inkscape:label="Layer 1"
     inkscape:groupmode="layer"
     id="layer1"
     transform="translate(0,-95.669249)">
    <ellipse
       style="opacity:1;fill:url(#linearGradient4166);fill-opacity:1;fill-rule:nonzero;stroke:#000000;stroke-width:0.2;stroke-linecap:square;stroke-miterlimit:4;stroke-dasharray:none;stroke-dashoffset:0;stroke-opacity:1"
       id="path4136"
       cx="-131.98485"
       cy="780.36664"
       rx="90.714287"
       ry="14.285714"
       transform="scale(-1,1)" />
    <path
       style="fill:none;fill-rule:evenodd;stroke:#000000;stroke-width:0.2;stroke-linecap:butt;stroke-linejoin:miter;stroke-miterlimit:4;stroke-dasharray:none;stroke-opacity:1"
       d="m 41.565364,779.85848 c 0.862741,21.22704 9.465295,42.05538 23.833196,57.70449 14.367901,15.64912 34.387463,25.99518 55.46378,28.66355 24.60581,3.11522 50.37588,-4.40441 69.44495,-20.26383 19.06906,-15.85942 31.15922,-39.82751 32.58045,-64.58899"
       id="path4146"
       inkscape:path-effect="#path-effect4148"
       inkscape:original-d="m 41.565364,779.85848 c 0,0 40.30188,83.74574 79.296976,86.36804 44.13352,2.96784 102.0254,-84.85282 102.0254,-84.85282"
       inkscape:connector-curvature="0"
       sodipodi:nodetypes="csc" />
    <path
       style="opacity:1;fill:url(#linearGradient4158);fill-opacity:1;stroke:none;stroke-width:2;stroke-linecap:square;stroke-miterlimit:4;stroke-dasharray:none;stroke-dashoffset:0;stroke-opacity:1"
       d="m 124.4737,865.81411 c -37.675226,-3.12979 -70.031396,-30.6217 -79.318376,-67.39407 -1.53353,-6.07211 -2.84881,-14.21692 -2.37273,-14.693 0.1574,-0.15741 0.83715,0.0748 1.51054,0.51603 4.92101,3.22437 22.13467,6.75892 41.79478,8.58188 25.633296,2.37683 63.003676,2.49059 89.145956,0.27137 23.13637,-1.96405 41.12179,-5.88653 45.90908,-10.01241 0.93097,-0.80235 0.94761,-0.7278 0.60511,2.71049 -0.95944,9.63155 -4.41893,21.00007 -9.3973,30.88121 -14.23416,28.25219 -40.96017,46.18745 -73.22984,49.14302 -6.36891,0.58333 -7.57548,0.58296 -14.64722,-0.005 l 0,2e-5 z"
       id="path4150"
       inkscape:connector-curvature="0" />
    <ellipse
       transform="scale(-1,1)"
       ry="14.285714"
       rx="90.714287"
       cy="621.0047"
       cx="-704.38818"
       id="ellipse4168"
       style="opacity:1;fill:url(#linearGradient4170);fill-opacity:1;fill-rule:nonzero;stroke:#000000;stroke-width:0.2;stroke-linecap:square;stroke-miterlimit:4;stroke-dasharray:none;stroke-dashoffset:0;stroke-opacity:1" />
    <ellipse
       style="opacity:1;fill:url(#linearGradient4174);fill-opacity:1;fill-rule:nonzero;stroke:#000000;stroke-width:0.2;stroke-linecap:square;stroke-miterlimit:4;stroke-dasharray:none;stroke-dashoffset:0;stroke-opacity:1"
       id="ellipse4172"
       cx="-1018.1191"
       cy="621.0047"
       rx="90.714287"
       ry="14.285714"
       transform="scale(-1,1)" />
    <path
       style="fill:none;fill-rule:evenodd;stroke:#000000;stroke-width:1px;stroke-linecap:butt;stroke-linejoin:miter;stroke-opacity:1"
       d="m 794.84687,620.86841 c -4.96566,20.44089 0.22103,43.09256 13.58653,59.33605 13.36551,16.2435 34.59432,25.69536 55.60887,24.75915 20.00509,-0.89123 39.39877,-11.12792 51.42143,-27.14208 12.02266,-16.01417 16.4403,-37.49414 11.71317,-56.95312"
       id="path4176"
       inkscape:path-effect="#path-effect4178"
       inkscape:original-d="m 794.84687,620.86841 c 0,0 32.9032,84.90323 69.1954,84.0952 35.0436,-0.78023 63.1346,-84.0952 63.1346,-84.0952"
       inkscape:connector-curvature="0"
       sodipodi:nodetypes="csc" />
    <path
       style="fill:none;fill-rule:evenodd;stroke:#000000;stroke-width:1px;stroke-linecap:butt;stroke-linejoin:miter;stroke-opacity:1"
       d="m 1108.8314,621.2332 c -2.7315,60.86151 -28.7784,120.38715 -71.6284,163.6938 -42.84994,43.30666 -102.0961,69.98321 -162.92523,73.35976 C 808.7271,861.9254 742.08203,838.29758 693.46185,794.18172 644.84168,750.06586 614.86624,686.02438 612.13497,620.42963"
       id="path4184"
       inkscape:path-effect="#path-effect4186"
       inkscape:original-d="m 1108.8314,621.2332 c 0,0 -123.43343,234.0618 -234.55363,237.05356 -117.9473,3.17557 -262.1428,-237.85713 -262.1428,-237.85713"
       inkscape:connector-curvature="0"
       sodipodi:nodetypes="csc" />
    <path
       style="opacity:1;fill:url(#linearGradient4196);fill-opacity:1;fill-rule:nonzero;stroke:#000000;stroke-width:0.14285715;stroke-linecap:square;stroke-miterlimit:4;stroke-dasharray:none;stroke-dashoffset:0;stroke-opacity:1"
       d="m 837.14557,856.68066 c -49.9503,-5.15515 -97.9348,-25.24726 -135.6313,-56.79169 -48.2617,-40.38539 -79.937,-99.49665 -87.2279,-162.7813 -0.5881,-5.10473 -1.0693,-10.51724 -1.0693,-12.02778 l 0,-2.74644 2.119,1.78304 c 12.1363,10.21201 90.5157,14.90355 143.9524,8.61652 11.6936,-1.37578 23.9387,-3.92867 29.3761,-6.12441 l 4.1953,-1.69411 0,11.80869 c 0,10.08978 0.2429,12.68551 1.646,17.83238 3.1939,11.71603 8.405,21.00299 16.6634,29.69693 9.121,9.60211 21.0202,16.38708 34.6818,19.77578 9.1253,2.2635 22.2843,2.12552 31.656,-0.33192 12.9926,-3.40686 23.2762,-9.30208 32.5241,-18.64474 13.5947,-13.73406 20.1173,-30.92193 19.4836,-51.34117 -0.256,-8.24763 0.021,-10.29853 1.1441,-8.48074 0.7086,1.14654 12.0868,4.34232 20.596,5.78476 46.4472,7.87358 132.64063,5.00497 152.82273,-5.08611 1.4579,-0.72878 2.8239,-1.32506 3.036,-1.32506 1.2638,0 -0.7922,18.83684 -3.5862,32.85715 -12.6616,63.53445 -49.5629,120.07604 -101.7425,155.89385 -34.57733,23.73507 -73.66693,38.35703 -115.00003,43.0172 -10.4328,1.17627 -39.4879,1.35722 -49.6428,0.30917 z"
       id="path4188"
       inkscape:connector-curvature="0" />
    <circle
       style="opacity:1;fill:url(#linearGradient4238);fill-opacity:1;fill-rule:nonzero;stroke:#000000;stroke-width:0.2;stroke-linecap:square;stroke-miterlimit:4;stroke-dasharray:none;stroke-dashoffset:0;stroke-opacity:1"
       id="path4230"
       cx="3515.906"
       cy="593.36731"
       r="308.57144" />
    <path
       sodipodi:nodetypes="csccscc"
       inkscape:connector-curvature="0"
       inkscape:original-d="m 3521.3716,467.09385 c 0,0 -66.9347,77.24756 -66.67,124.24876 0.275,48.82791 70.7107,128.28938 70.7107,128.28938 l -11.0305,-8.28428 c 0,0 62.1724,-74.85299 62.5482,-109.90357 0.3752,-34.99717 -66.5279,-126.91373 -66.5279,-126.91373 z"
       inkscape:path-effect="#path-effect4242"
       id="path4240"
       d="m 3521.3716,467.09385 c -40.6332,27.23919 -66.4384,75.33068 -66.67,124.24876 -0.1207,25.49876 6.3776,51.0008 18.6864,73.33233 12.3087,22.33152 30.4006,41.44338 52.0243,54.95705 l -11.0305,-8.28428 c 36.39,-24.22722 60.3026,-66.2441 62.5482,-109.90357 1.2871,-25.02409 -4.266,-50.3664 -15.8995,-72.55928 -11.6334,-22.19288 -29.3161,-41.17691 -50.6284,-54.35445 l 10.9695,-7.43656 z"
       style="fill:#ffffff;fill-opacity:1;fill-rule:evenodd;stroke:#000000;stroke-width:1px;stroke-linecap:butt;stroke-linejoin:miter;stroke-opacity:1" />
    <ellipse
       transform="scale(-1,1)"
       ry="17.429327"
       rx="214.40907"
       cy="338.56149"
       cx="-2095.7886"
       id="ellipse4285"
       style="opacity:1;fill:url(#linearGradient4289);fill-opacity:1;fill-rule:nonzero;stroke:#000000;stroke-width:0.19161013;stroke-linecap:square;stroke-miterlimit:4;stroke-dasharray:none;stroke-dashoffset:0;stroke-opacity:1" />
    <path
       style="opacity:1;fill:url(#linearGradient4331);fill-opacity:1;fill-rule:nonzero;stroke:#000000;stroke-width:0.20203051;stroke-linecap:square;stroke-miterlimit:4;stroke-dasharray:none;stroke-dashoffset:0;stroke-opacity:1"
       d="m 2066.8226,863.38733 c -1.389,-0.20064 -6.6165,-0.86128 -11.6168,-1.46809 -43.1422,-5.2356 -89.7633,-22.93886 -128.7944,-48.90662 -64.4509,-42.87997 -109.8074,-106.94931 -128.2824,-181.20835 -7.4607,-29.98756 -7.5831,-31.18008 -7.5831,-73.85325 0,-42.78438 0.1303,-44.03811 7.7188,-74.24621 12.937,-51.49944 38.5295,-98.31067 74.2965,-135.89561 l 8.3978,-8.82465 5.8424,2.35985 c 14.8152,5.98412 64.2245,11.49868 121.4324,13.55304 35.4691,1.27371 139.8975,1.27275 174.7563,-0.002 57.2898,-2.09437 109.1084,-7.99649 122.5988,-13.96395 l 4.6012,-2.03531 8.306,8.76451 c 35.8113,37.78816 62.8494,87.85388 75.1075,139.0742 6.8356,28.56297 7.0505,30.73294 7.0505,71.21575 0,41.41939 -0.2001,43.26594 -8.0455,74.24622 -5.8932,23.27135 -12.0523,39.97799 -22.7565,61.72699 -15.0318,30.54191 -33.0675,55.6864 -57.5567,80.24259 -49.2101,49.34482 -112.9382,80.20758 -182.3967,88.33257 -11.8061,1.38106 -55.4129,1.99486 -63.0761,0.88794 z"
       id="path4323"
       inkscape:connector-curvature="0" />
    <path
       style="fill:#ffffff;fill-opacity:1;fill-rule:evenodd;stroke:#000000;stroke-width:1px;stroke-linecap:butt;stroke-linejoin:miter;stroke-opacity:1"
       d="m 2101.0654,429.14355 c -40.6332,27.23923 -66.4383,75.3307 -66.6699,124.24876 -0.1207,25.49875 6.3776,51.00078 18.6863,73.3323 12.3087,22.33153 30.4007,41.44339 52.0243,54.95708 l -11.0305,-8.28428 c 36.39,-24.22722 60.3026,-66.2441 62.5482,-109.90357 1.2871,-25.02409 -4.266,-50.3664 -15.8995,-72.55928 -11.6334,-22.19288 -29.3161,-41.17691 -50.6284,-54.35445 l 10.9695,-7.43656 z"
       id="path4256"
       inkscape:path-effect="#path-effect4258"
       inkscape:original-d="m 2101.0654,429.14355 c 0,0 -66.9346,77.24756 -66.6699,124.24876 0.275,48.82791 70.7106,128.28938 70.7106,128.28938 l -11.0305,-8.28428 c 0,0 62.1724,-74.85299 62.5482,-109.90357 0.3752,-34.99717 -66.5279,-126.91373 -66.5279,-126.91373 z"
       inkscape:connector-curvature="0"
       sodipodi:nodetypes="csccscc" />
    <ellipse
       transform="scale(-1,1)"
       ry="14.285714"
       rx="90.714287"
       cy="776.32593"
       cx="-406.74634"
       id="ellipse4170"
       style="opacity:1;fill:url(#linearGradient4179);fill-opacity:1;fill-rule:nonzero;stroke:#000000;stroke-width:0.2;stroke-linecap:square;stroke-miterlimit:4;stroke-dasharray:none;stroke-dashoffset:0;stroke-opacity:1" />
    <path
       sodipodi:nodetypes="csc"
       inkscape:connector-curvature="0"
       inkscape:original-d="m 316.32683,775.81782 c 0,0 40.30188,83.74574 79.29698,86.36804 44.13352,2.96784 102.0254,-84.85282 102.0254,-84.85282"
       inkscape:path-effect="#path-effect4174"
       id="path4172"
       d="m 316.32683,775.81782 c 0.86274,21.22704 9.4653,42.05538 23.8332,57.70449 14.3679,15.64912 34.38746,25.99518 55.46378,28.66355 24.60581,3.11522 50.37588,-4.40441 69.44495,-20.26383 19.06906,-15.85942 31.15922,-39.82751 32.58045,-64.58899"
       style="fill:none;fill-rule:evenodd;stroke:#000000;stroke-width:0.2;stroke-linecap:butt;stroke-linejoin:miter;stroke-miterlimit:4;stroke-dasharray:none;stroke-opacity:1" />
    <path
       inkscape:connector-curvature="0"
       id="path4177"
       d="m 399.23517,861.77345 c -37.67523,-3.12979 -70.0314,-30.6217 -79.31838,-67.39407 -1.53353,-6.07211 -2.84881,-14.21692 -2.37273,-14.693 0.1574,-0.15741 0.83715,0.0748 1.51054,0.51603 4.92101,3.22437 22.13467,6.75892 41.79478,8.58188 25.6333,2.37683 63.00368,2.49059 89.14596,0.27137 23.13637,-1.96405 41.12179,-5.88653 45.90908,-10.01241 0.93097,-0.80235 0.94761,-0.7278 0.60511,2.71049 -0.95944,9.63155 -4.41893,21.00007 -9.3973,30.88121 -14.23416,28.25219 -40.96017,46.18745 -73.22984,49.14302 -6.36891,0.58333 -7.57548,0.58296 -14.64722,-0.005 l 0,2e-5 z"
       style="opacity:1;fill:url(#linearGradient4181);fill-opacity:1;stroke:none;stroke-width:2;stroke-linecap:square;stroke-miterlimit:4;stroke-dasharray:none;stroke-dashoffset:0;stroke-opacity:1" />
    <ellipse
       style="opacity:1;fill:url(#linearGradient4197);fill-opacity:1;fill-rule:nonzero;stroke:#000000;stroke-width:0.2;stroke-linecap:square;stroke-miterlimit:4;stroke-dasharray:none;stroke-dashoffset:0;stroke-opacity:1"
       id="ellipse4183"
       cx="-1274.1141"
       cy="621.00464"
       rx="90.714287"
       ry="14.285714"
       transform="scale(-1,1)" />
    <ellipse
       transform="scale(-1,1)"
       ry="14.285714"
       rx="90.714287"
       cy="621.00464"
       cx="-1587.8451"
       id="ellipse4185"
       style="opacity:1;fill:url(#linearGradient4199);fill-opacity:1;fill-rule:nonzero;stroke:#000000;stroke-width:0.2;stroke-linecap:square;stroke-miterlimit:4;stroke-dasharray:none;stroke-dashoffset:0;stroke-opacity:1" />
    <path
       sodipodi:nodetypes="csc"
       inkscape:connector-curvature="0"
       inkscape:original-d="m 1364.5729,620.86835 c 0,0 32.9032,84.90323 69.1954,84.0952 35.0436,-0.78023 63.1346,-84.0952 63.1346,-84.0952"
       inkscape:path-effect="#path-effect4189"
       id="path4187"
       d="m 1364.5729,620.86835 c -4.9657,20.44089 0.221,43.09256 13.5865,59.33605 13.3655,16.2435 34.5943,25.69536 55.6089,24.75915 20.0051,-0.89123 39.3988,-11.12792 51.4214,-27.14208 12.0227,-16.01417 16.4403,-37.49414 11.7132,-56.95312"
       style="fill:none;fill-rule:evenodd;stroke:#000000;stroke-width:1px;stroke-linecap:butt;stroke-linejoin:miter;stroke-opacity:1" />
    <path
       sodipodi:nodetypes="csc"
       inkscape:connector-curvature="0"
       inkscape:original-d="m 1678.5574,621.23314 c 0,0 -123.4334,234.06181 -234.5536,237.05357 -117.9473,3.17557 -262.1428,-237.85714 -262.1428,-237.85714"
       inkscape:path-effect="#path-effect4193"
       id="path4191"
       d="m 1678.5574,621.23314 c -2.7315,60.86151 -28.7784,120.38715 -71.6284,163.6938 -42.8499,43.30666 -102.0961,69.98322 -162.9252,73.35977 -65.5507,3.63864 -132.1958,-19.98917 -180.8159,-64.10503 -48.6202,-44.11587 -78.5956,-108.15736 -81.3269,-173.75211"
       style="fill:none;fill-rule:evenodd;stroke:#000000;stroke-width:1px;stroke-linecap:butt;stroke-linejoin:miter;stroke-opacity:1" />
    <path
       inkscape:connector-curvature="0"
       id="path4195"
       d="m 1406.8716,856.68061 c -49.9503,-5.15515 -97.9348,-25.24726 -135.6313,-56.79169 -48.2617,-40.38539 -79.937,-99.49666 -87.2279,-162.78131 -0.5881,-5.10473 -1.0693,-10.51724 -1.0693,-12.02778 l 0,-2.74644 2.119,1.78304 c 12.1363,10.21201 90.5157,14.90355 143.9524,8.61652 11.6935,-1.37578 23.9386,-3.92867 29.3761,-6.12441 l 4.1953,-1.69411 0,11.80869 c 0,10.08978 0.2429,12.68551 1.646,17.83238 3.1939,11.71603 8.405,21.00299 16.6634,29.69693 9.121,9.60211 21.0202,16.38708 34.6818,19.77578 9.1253,2.2635 22.2843,2.12552 31.656,-0.33192 12.9926,-3.40686 23.2762,-9.30208 32.5241,-18.64474 13.5947,-13.73406 20.1173,-30.92193 19.4836,-51.34117 -0.256,-8.24763 0.021,-10.29853 1.1441,-8.48074 0.7086,1.14654 12.0868,4.34232 20.596,5.78476 46.4472,7.87358 132.6406,5.00497 152.8227,-5.08611 1.4579,-0.72878 2.8239,-1.32506 3.036,-1.32506 1.2638,0 -0.7922,18.83684 -3.5862,32.85715 -12.6616,63.53445 -49.5629,120.07605 -101.7425,155.89386 -34.5773,23.73507 -73.6669,38.35703 -115,43.0172 -10.4328,1.17627 -39.4879,1.35722 -49.6428,0.30917 z"
       style="opacity:1;fill:url(#linearGradient4201);fill-opacity:1;fill-rule:nonzero;stroke:#000000;stroke-width:0.14285715;stroke-linecap:square;stroke-miterlimit:4;stroke-dasharray:none;stroke-dashoffset:0;stroke-opacity:1" />
    <ellipse
       style="opacity:1;fill:url(#linearGradient4211);fill-opacity:1;fill-rule:nonzero;stroke:#000000;stroke-width:0.19161013;stroke-linecap:square;stroke-miterlimit:4;stroke-dasharray:none;stroke-dashoffset:0;stroke-opacity:1"
       id="ellipse4203"
       cx="-2810.9766"
       cy="362.80505"
       rx="214.40907"
       ry="17.429327"
       transform="scale(-1,1)" />
    <path
       inkscape:connector-curvature="0"
       id="path4205"
       d="m 2782.0106,887.63091 c -1.389,-0.20064 -6.6165,-0.86128 -11.6168,-1.46809 -43.1422,-5.2356 -89.7633,-22.93886 -128.7944,-48.90662 -64.4509,-42.87997 -109.8074,-106.94931 -128.2824,-181.20835 -7.4607,-29.98756 -7.5831,-31.18008 -7.5831,-73.85325 0,-42.78438 0.1303,-44.03811 7.7188,-74.24621 12.937,-51.49944 38.5295,-98.31067 74.2965,-135.89561 l 8.3978,-8.82465 5.8424,2.35985 c 14.8152,5.98412 64.2245,11.49868 121.4324,13.55304 35.4691,1.27371 139.8975,1.27275 174.7563,-0.002 57.2898,-2.09437 109.1084,-7.99649 122.5988,-13.96395 l 4.6012,-2.03531 8.306,8.76451 c 35.8113,37.78816 62.8494,87.85388 75.1075,139.0742 6.8356,28.56297 7.0505,30.73294 7.0505,71.21575 0,41.41939 -0.2001,43.26594 -8.0455,74.24622 -5.8932,23.27135 -12.0523,39.97799 -22.7565,61.72699 -15.0318,30.54191 -33.0675,55.6864 -57.5567,80.24259 -49.2101,49.34482 -112.9382,80.20758 -182.3967,88.33257 -11.8061,1.38106 -55.4129,1.99486 -63.0761,0.88794 z"
       style="opacity:1;fill:url(#linearGradient4213);fill-opacity:1;fill-rule:nonzero;stroke:#000000;stroke-width:0.20203051;stroke-linecap:square;stroke-miterlimit:4;stroke-dasharray:none;stroke-dashoffset:0;stroke-opacity:1" />
    <path
       sodipodi:nodetypes="csccscc"
       inkscape:connector-curvature="0"
       inkscape:original-d="m 2816.2534,453.38713 c 0,0 -66.9346,77.24756 -66.6699,124.24876 0.275,48.82791 70.7106,128.28938 70.7106,128.28938 l -11.0305,-8.28428 c 0,0 62.1724,-74.85299 62.5482,-109.90357 0.3752,-34.99717 -66.5279,-126.91373 -66.5279,-126.91373 z"
       inkscape:path-effect="#path-effect4209"
       id="path4207"
       d="m 2816.2534,453.38713 c -40.6332,27.23923 -66.4383,75.3307 -66.6699,124.24876 -0.1207,25.49875 6.3776,51.00078 18.6863,73.3323 12.3087,22.33153 30.4007,41.44339 52.0243,54.95708 l -11.0305,-8.28428 c 36.39,-24.22722 60.3026,-66.2441 62.5482,-109.90357 1.2871,-25.02409 -4.266,-50.3664 -15.8995,-72.55928 -11.6334,-22.19288 -29.3161,-41.17691 -50.6284,-54.35445 l 10.9695,-7.43656 z"
       style="fill:#ffffff;fill-opacity:1;fill-rule:evenodd;stroke:#000000;stroke-width:1px;stroke-linecap:butt;stroke-linejoin:miter;stroke-opacity:1" />
    <path
       style="fill:none;fill-rule:evenodd;stroke:#000000;stroke-width:1.99999976;stroke-linecap:butt;stroke-linejoin:miter;stroke-miterlimit:4;stroke-dasharray:none;stroke-opacity:1"
       d="m 385.65058,791.3674 c 0.0342,-18.28497 -0.43671,-36.57089 -1.4119,-54.82987 -0.52374,-9.80625 -1.1175,-20.05363 2.87519,-29.02554 1.99635,-4.48596 5.17198,-8.53137 9.38402,-11.05484 4.21205,-2.52347 9.50187,-3.40189 14.15741,-1.84138 2.45872,0.82415 4.68017,2.29077 6.51827,4.11994 1.83811,1.82918 3.30109,4.01476 4.4371,6.34585 2.27203,4.66219 3.23318,9.83941 4.06048,14.95934 2.21027,13.67885 3.63511,27.48456 4.26515,41.3265"
       id="path4219"
       inkscape:path-effect="#path-effect4221"
       inkscape:original-d="m 385.65058,791.3674 c 0,0 0.33859,-28.49061 -1.4119,-54.82987 -1.75048,-26.33926 4.95565,-40.42565 26.41662,-41.92176 16.82364,-1.17283 14.26509,5.91863 15.01585,25.42513 0.75076,19.50649 4.26515,41.3265 4.26515,41.3265"
       inkscape:connector-curvature="0"
       sodipodi:nodetypes="csssc" />
    <path
       style="fill:none;fill-rule:evenodd;stroke:#000000;stroke-width:1.99999976;stroke-linecap:butt;stroke-linejoin:miter;stroke-miterlimit:4;stroke-dasharray:none;stroke-opacity:1"
       d="m 1362.737,620.9475 c 1.2094,-17.80002 9.7966,-34.98547 23.3051,-46.63985 13.5085,-11.65438 31.767,-17.62999 49.552,-16.2173 16.0031,1.27115 31.4687,8.46137 42.7552,19.87758 11.2865,11.4162 18.2995,26.96301 19.3877,42.97957"
       id="path4223"
       inkscape:path-effect="#path-effect4225"
       inkscape:original-d="m 1362.737,620.9475 c 0,0 33.7381,-59.17202 72.8571,-62.85715 44.0963,-4.15399 62.1429,62.85715 62.1429,62.85715"
       inkscape:connector-curvature="0"
       sodipodi:nodetypes="csc" />
    <path
       style="fill:url(#linearGradient4239);fill-opacity:1;fill-rule:evenodd;stroke:#000000;stroke-width:1px;stroke-linecap:butt;stroke-linejoin:miter;stroke-opacity:1"
       d="m 2623.7034,267.44399 c 56.6276,18.83537 116.101,29.0894 175.7666,30.30458 67.7457,1.37975 135.7139,-8.91847 200.0102,-30.30458 -17.4537,-37.32201 -46.3092,-69.21793 -81.7022,-90.31069 -35.3929,-21.09275 -77.1769,-31.29517 -118.308,-28.8873 -37.0951,2.17159 -73.5421,14.54153 -104.2958,35.39749 -30.7537,20.85595 -55.7298,50.14071 -71.4708,83.8005 z"
       id="path4227"
       inkscape:path-effect="#path-effect4229"
       inkscape:original-d="m 2623.7034,267.44399 c 0,0 116.3164,29.69924 175.7666,30.30458 67.4275,0.68656 200.0102,-30.30458 200.0102,-30.30458 0,0 -122.4316,-121.46682 -200.0102,-119.19799 -70.7606,2.06943 -175.7666,119.19799 -175.7666,119.19799 z"
       inkscape:connector-curvature="0"
       sodipodi:nodetypes="cscsc" />
    <path
       style="fill:none;fill-rule:evenodd;stroke:#000000;stroke-width:0.99999988;stroke-linecap:butt;stroke-linejoin:miter;stroke-miterlimit:4;stroke-dasharray:0.99999988, 1.99999976;stroke-dashoffset:0;stroke-opacity:1"
       d="m 2622.6522,265.87782 c 63.8703,-16.96487 130.0636,-25.16068 196.1428,-24.28571 60.5871,0.80225 121.0693,9.22261 179.5715,25"
       id="path4241"
       inkscape:path-effect="#path-effect4243"
       inkscape:original-d="m 2622.6522,265.87782 c 0,0 134.8914,-24.1598 196.1428,-24.28571 65.0596,-0.13374 179.5715,25 179.5715,25"
       inkscape:connector-curvature="0"
       sodipodi:nodetypes="csc" />
    <flowRoot
       xml:space="preserve"
       id="flowRoot4201"
       style="font-style:normal;font-weight:normal;font-size:40px;line-height:125%;font-family:sans-serif;letter-spacing:0px;word-spacing:0px;fill:#000000;fill-opacity:1;stroke:none;stroke-width:1px;stroke-linecap:butt;stroke-linejoin:miter;stroke-opacity:1"
       transform="translate(-404.20593,-10.629685)"><flowRegion
         id="flowRegion4203"><rect
           id="rect4205"
           width="222.85715"
           height="125.71429"
           x="691.42859"
           y="925.84918" /></flowRegion><flowPara
         id="flowPara4207"
         style="font-size:80px">1-cell</flowPara></flowRoot>    <flowRoot
       xml:space="preserve"
       id="flowRoot4209"
       style="font-style:normal;font-weight:normal;font-size:40px;line-height:125%;font-family:sans-serif;letter-spacing:0px;word-spacing:0px;fill:#000000;fill-opacity:1;stroke:none;stroke-width:1px;stroke-linecap:butt;stroke-linejoin:miter;stroke-opacity:1"
       transform="translate(-332.00289,12.227737)"><flowRegion
         id="flowRegion4211"><rect
           id="rect4213"
           width="342.85715"
           height="142.85715"
           x="1640"
           y="902.99207" /></flowRegion><flowPara
         id="flowPara4215"
         style="font-size:80px">1-cell</flowPara></flowRoot>    <flowRoot
       xml:space="preserve"
       id="flowRoot4217"
       style="font-style:normal;font-weight:normal;font-size:40px;line-height:125%;font-family:sans-serif;letter-spacing:0px;word-spacing:0px;fill:#000000;fill-opacity:1;stroke:none;stroke-width:1px;stroke-linecap:butt;stroke-linejoin:miter;stroke-opacity:1"
       transform="translate(-283.51556,6.5128933)"><flowRegion
         id="flowRegion4219"><rect
           id="rect4221"
           width="434.28571"
           height="114.28571"
           x="2994.2856"
           y="908.70636" /></flowRegion><flowPara
         id="flowPara4223"
         style="font-size:80px">2-cell</flowPara></flowRoot>  </g>
</svg>
