<?xml version="1.0" encoding="UTF-8" standalone="no"?>
<!-- Created with Inkscape (http://www.inkscape.org/) -->

<svg
   xmlns:dc="http://purl.org/dc/elements/1.1/"
   xmlns:cc="http://creativecommons.org/ns#"
   xmlns:rdf="http://www.w3.org/1999/02/22-rdf-syntax-ns#"
   xmlns:svg="http://www.w3.org/2000/svg"
   xmlns="http://www.w3.org/2000/svg"
   xmlns:sodipodi="http://sodipodi.sourceforge.net/DTD/sodipodi-0.dtd"
   xmlns:inkscape="http://www.inkscape.org/namespaces/inkscape"
   width="360mm"
   height="130mm"
   viewBox="0 0 1275.5905 460.62992"
   id="svg2"
   version="1.1"
   inkscape:version="0.91 r13725"
   sodipodi:docname="rips_critical.svg">
  <defs
     id="defs4">
    <inkscape:path-effect
       effect="spiro"
       id="path-effect4335"
       is_visible="true" />
    <inkscape:path-effect
       is_visible="true"
       id="path-effect4223"
       effect="spiro" />
    <inkscape:path-effect
       effect="spiro"
       id="path-effect4217"
       is_visible="true" />
    <inkscape:path-effect
       is_visible="true"
       id="path-effect4201"
       effect="spiro" />
    <inkscape:path-effect
       effect="spiro"
       id="path-effect4197"
       is_visible="true" />
    <inkscape:path-effect
       is_visible="true"
       id="path-effect4193"
       effect="spiro" />
    <inkscape:path-effect
       effect="spiro"
       id="path-effect4189"
       is_visible="true" />
    <inkscape:path-effect
       is_visible="true"
       id="path-effect4185"
       effect="spiro" />
    <inkscape:path-effect
       effect="spiro"
       id="path-effect4177"
       is_visible="true" />
    <inkscape:path-effect
       is_visible="true"
       id="path-effect4169"
       effect="spiro" />
    <inkscape:path-effect
       effect="spiro"
       id="path-effect4144"
       is_visible="true" />
  </defs>
  <sodipodi:namedview
     id="base"
     pagecolor="#ffffff"
     bordercolor="#666666"
     borderopacity="1.0"
     inkscape:pageopacity="0.0"
     inkscape:pageshadow="2"
     inkscape:zoom="0.49497475"
     inkscape:cx="512.60702"
     inkscape:cy="205.45676"
     inkscape:document-units="px"
     inkscape:current-layer="layer1"
     showgrid="false"
     height="150mm"
     inkscape:window-width="1440"
     inkscape:window-height="856"
     inkscape:window-x="0"
     inkscape:window-y="0"
     inkscape:window-maximized="1" />
  <metadata
     id="metadata7">
    <rdf:RDF>
      <cc:Work
         rdf:about="">
        <dc:format>image/svg+xml</dc:format>
        <dc:type
           rdf:resource="http://purl.org/dc/dcmitype/StillImage" />
        <dc:title></dc:title>
      </cc:Work>
    </rdf:RDF>
  </metadata>
  <g
     inkscape:label="Layer 1"
     inkscape:groupmode="layer"
     id="layer1"
     transform="translate(0,-591.73229)">
    <path
       sodipodi:type="star"
       style="opacity:1;fill:none;fill-opacity:0.07058824;stroke:#000000;stroke-width:2;stroke-linecap:square;stroke-miterlimit:4;stroke-dasharray:none;stroke-dashoffset:0;stroke-opacity:1"
       id="path4209"
       sodipodi:sides="6"
       sodipodi:cx="207.85715"
       sodipodi:cy="283.07648"
       sodipodi:r1="194.94243"
       sodipodi:r2="168.8251"
       sodipodi:arg1="0.52359878"
       sodipodi:arg2="1.0471976"
       inkscape:flatsided="true"
       inkscape:rounded="0"
       inkscape:randomized="0"
       d="M 376.68224,380.54769 207.85715,478.01891 39.032051,380.54769 39.032052,185.60526 207.85715,88.134048 376.68224,185.60526 Z"
       transform="matrix(0,1,-1,0,914.93362,567.36219)" />
    <path
       style="fill:#a0a0a0;fill-opacity:0.16862745;fill-rule:evenodd;stroke:#000000;stroke-width:2;stroke-linecap:butt;stroke-linejoin:miter;stroke-miterlimit:4;stroke-dasharray:none;stroke-opacity:1"
       d="M 534.4524,605.8946 826.89157,774.59006 534.95748,943.2856 730.422,943.7907 437.47776,775.09516 534.95748,943.2856 729.41184,943.7907 728.90677,605.8946 437.47776,775.09516 534.95748,942.7805 534.4524,605.8946 Z"
       id="path4215"
       inkscape:path-effect="#path-effect4217"
       inkscape:original-d="M 534.4524,605.8946 826.89157,774.59006 534.95748,943.2856 730.422,943.7907 437.47776,775.09516 534.95748,943.2856 729.41184,943.7907 728.90677,605.8946 437.47776,775.09516 534.95748,942.7805 Z"
       inkscape:connector-curvature="0" />
    <path
       transform="matrix(0,1,-1,0,1337.3622,565.21933)"
       d="M 376.68224,380.54769 207.85715,478.01891 39.032051,380.54769 39.032052,185.60526 207.85715,88.134048 376.68224,185.60526 Z"
       inkscape:randomized="0"
       inkscape:rounded="0"
       inkscape:flatsided="true"
       sodipodi:arg2="1.0471976"
       sodipodi:arg1="0.52359878"
       sodipodi:r2="168.8251"
       sodipodi:r1="194.94243"
       sodipodi:cy="283.07648"
       sodipodi:cx="207.85715"
       sodipodi:sides="6"
       id="path4219"
       style="opacity:1;fill:none;fill-opacity:0.07058824;stroke:#000000;stroke-width:2;stroke-linecap:square;stroke-miterlimit:4;stroke-dasharray:none;stroke-dashoffset:0;stroke-opacity:1"
       sodipodi:type="star" />
    <path
       inkscape:connector-curvature="0"
       inkscape:original-d="M 956.73812,603.89459 1249.1773,772.59007 957.2432,941.2855 1152.7077,941.7906 859.76348,773.09514 957.2432,941.2855 1151.6976,941.7906 1151.1925,603.89459 859.76348,773.09514 957.2432,940.7805 Z"
       inkscape:path-effect="#path-effect4223"
       id="path4221"
       d="M 956.73812,603.89459 1249.1773,772.59007 957.2432,941.2855 1152.7077,941.7906 859.76348,773.09514 957.2432,941.2855 1151.6976,941.7906 1151.1925,603.89459 859.76348,773.09514 957.2432,940.7805 956.73812,603.89459 Z"
       style="fill:none;fill-rule:evenodd;stroke:#000000;stroke-width:2;stroke-linecap:butt;stroke-linejoin:miter;stroke-miterlimit:4;stroke-dasharray:none;stroke-opacity:1" />
    <path
       style="opacity:1;fill:#a0a0a0;fill-opacity:0.1678322;stroke:none;stroke-width:1.42900002;stroke-linecap:square;stroke-miterlimit:4;stroke-dasharray:none;stroke-dashoffset:0;stroke-opacity:1"
       d="m 778.27565,743.90558 -45.50775,-26.22396 -0.028,-53.17857 c -0.0154,-29.24821 0.2451,-52.87321 0.57884,-52.5 0.33375,0.37322 20.15984,34.58929 44.05799,76.03572 23.89815,41.44643 44.34889,76.88393 45.44609,78.75 1.0972,1.86607 1.76217,3.38114 1.47772,3.36681 -0.28445,-0.0143 -20.99566,-11.82682 -46.02492,-26.25 z"
       id="path4251"
       inkscape:connector-curvature="0" />
    <path
       style="opacity:1;fill:#a0a0a0;fill-opacity:0.1678322;stroke:none;stroke-width:1.42900002;stroke-linecap:square;stroke-miterlimit:4;stroke-dasharray:none;stroke-dashoffset:0;stroke-opacity:1"
       d="m 732.72648,885.47925 0.0145,-53.51191 46.14669,-26.63641 c 25.38069,-14.65002 46.23619,-26.54288 46.34557,-26.42857 0.21393,0.22358 -91.22555,158.79304 -92.03542,159.60294 -0.26723,0.2672 -0.47934,-23.59451 -0.47136,-53.02605 z"
       id="path4253"
       inkscape:connector-curvature="0" />
    <path
       style="opacity:1;fill:#a0a0a0;fill-opacity:0.1678322;stroke:none;stroke-width:1.42900002;stroke-linecap:square;stroke-miterlimit:4;stroke-dasharray:none;stroke-dashoffset:0;stroke-opacity:1"
       d="m 543.10482,941.7251 c 1.38482,-1.2233 90.67553,-52.49488 91.37762,-52.46997 0.74916,0.0266 90.18726,51.35187 91.4081,52.45577 0.37851,0.3423 -40.03464,0.6136 -91.39286,0.6136 -50.63929,0 -91.76607,-0.2697 -91.39286,-0.5994 z"
       id="path4255"
       inkscape:connector-curvature="0" />
    <path
       style="opacity:1;fill:#a0a0a0;fill-opacity:0.1678322;stroke:none;stroke-width:1.42900002;stroke-linecap:square;stroke-miterlimit:4;stroke-dasharray:none;stroke-dashoffset:0;stroke-opacity:1"
       d="m 489.62849,858.29896 c -25.04268,-43.07118 -45.43344,-78.40995 -45.31279,-78.53059 0.12064,-0.12065 20.70125,11.57476 45.73467,25.9898 l 45.51532,26.20917 10e-4,52.32143 c 7.2e-4,28.77678 -0.0902,52.32143 -0.20253,52.32143 -0.11233,0 -20.6937,-35.24006 -45.73638,-78.31124 l 2.8e-4,0 z"
       id="path4257"
       inkscape:connector-curvature="0" />
    <path
       style="opacity:1;fill:#a0a0a0;fill-opacity:0.1678322;stroke:none;stroke-width:1.42900002;stroke-linecap:square;stroke-miterlimit:4;stroke-dasharray:none;stroke-dashoffset:0;stroke-opacity:1"
       d="m 443.42625,771.20459 c 0,-0.18522 20.35807,-35.60722 45.24016,-78.71557 24.8821,-43.10835 45.60564,-79.02168 46.05232,-79.8074 0.61111,-1.07494 0.77268,11.81281 0.65269,52.0633 l -0.15946,53.49188 -36.78571,21.36467 c -20.23214,11.75057 -40.88393,23.7441 -45.89286,26.65228 -5.00893,2.90817 -9.10714,5.13605 -9.10714,4.95084 z"
       id="path4259"
       inkscape:connector-curvature="0" />
    <path
       style="opacity:1;fill:#a0a0a0;fill-opacity:0.1678322;stroke:none;stroke-width:1.42900002;stroke-linecap:square;stroke-miterlimit:4;stroke-dasharray:none;stroke-dashoffset:0;stroke-opacity:1"
       d="m 588.93817,634.56929 -45.38204,-26.17338 45.34766,-0.18388 c 24.94122,-0.10113 65.64335,-0.10113 90.44918,0 l 45.10152,0.18388 -37.4784,21.74652 c -20.61313,11.96058 -40.89335,23.7386 -45.06715,26.17337 l -7.58874,4.42686 -45.38203,-26.17337 z"
       id="path4261"
       inkscape:connector-curvature="0" />
    <path
       style="opacity:1;fill:#a0a0a0;fill-opacity:0.16862745;stroke:none;stroke-width:2;stroke-linecap:square;stroke-miterlimit:4;stroke-dasharray:none;stroke-dashoffset:0;stroke-opacity:1"
       d="m 963.10482,939.5822 c 1.38482,-1.2232 90.67548,-52.49484 91.37758,-52.46993 0.7492,0.0266 90.1873,51.35183 91.4081,52.45573 0.3785,0.3423 -40.0346,0.6136 -91.3928,0.6136 -50.6393,0 -91.76609,-0.2697 -91.39288,-0.5994 z"
       id="path4275"
       inkscape:connector-curvature="0" />
    <path
       style="opacity:1;fill:#a0a0a0;fill-opacity:0.16862745;stroke:none;stroke-width:2;stroke-linecap:square;stroke-miterlimit:4;stroke-dasharray:none;stroke-dashoffset:0;stroke-opacity:1"
       d="m 1152.7265,883.33639 0.014,-53.51191 46.1467,-26.63641 c 25.3807,-14.65002 46.2362,-26.54288 46.3455,-26.42857 0.214,0.22358 -91.2255,158.793 -92.0354,159.6029 -0.2672,0.2673 -0.4793,-23.59447 -0.4713,-53.02601 z"
       id="path4277"
       inkscape:connector-curvature="0" />
    <path
       style="opacity:1;fill:#a0a0a0;fill-opacity:0.16862745;stroke:none;stroke-width:2;stroke-linecap:square;stroke-miterlimit:4;stroke-dasharray:none;stroke-dashoffset:0;stroke-opacity:1"
       d="m 1198.2757,741.76272 -45.5078,-26.22395 -0.028,-53.17857 c -0.015,-29.24822 0.2451,-52.87322 0.5788,-52.50001 0.3338,0.37322 20.1599,34.58929 44.058,76.03572 23.8982,41.44643 44.3489,76.88393 45.4461,78.75 1.0972,1.86607 1.7622,3.38114 1.4777,3.36681 -0.2844,-0.0143 -20.9956,-11.82682 -46.0249,-26.25 z"
       id="path4279"
       inkscape:connector-curvature="0" />
    <path
       style="opacity:1;fill:#a0a0a0;fill-opacity:0.16862745;stroke:none;stroke-width:2;stroke-linecap:square;stroke-miterlimit:4;stroke-dasharray:none;stroke-dashoffset:0;stroke-opacity:1"
       d="m 1008.9382,632.42643 -45.38207,-26.17338 45.34767,-0.18388 c 24.9412,-0.10113 65.6433,-0.10113 90.4492,0 l 45.1015,0.18388 -37.4784,21.74652 c -20.6131,11.96058 -40.8934,23.7386 -45.0672,26.17338 l -7.5887,4.42686 -45.382,-26.17338 z"
       id="path4281"
       inkscape:connector-curvature="0" />
    <path
       style="opacity:1;fill:#a0a0a0;fill-opacity:0.16862745;stroke:none;stroke-width:2;stroke-linecap:square;stroke-miterlimit:4;stroke-dasharray:none;stroke-dashoffset:0;stroke-opacity:1"
       d="m 863.42625,769.06173 c 0,-0.18521 20.35807,-35.60722 45.24016,-78.71557 24.8821,-43.10835 45.60564,-79.02168 46.05232,-79.80739 0.61111,-1.07495 0.77268,11.8128 0.65269,52.0633 l -0.15946,53.49187 -36.78571,21.36467 c -20.23214,11.75057 -40.88393,23.7441 -45.89286,26.65228 -5.00893,2.90818 -9.10714,5.13606 -9.10714,4.95084 z"
       id="path4283"
       inkscape:connector-curvature="0" />
    <path
       style="opacity:1;fill:#a0a0a0;fill-opacity:0.16862745;stroke:none;stroke-width:2;stroke-linecap:square;stroke-miterlimit:4;stroke-dasharray:none;stroke-dashoffset:0;stroke-opacity:1"
       d="m 909.62849,856.1561 c -25.04268,-43.07118 -45.43344,-78.40995 -45.31279,-78.53059 0.12064,-0.12065 20.70125,11.57477 45.73467,25.98981 l 45.51532,26.20916 10e-4,52.32143 c 7.2e-4,28.77679 -0.0902,52.32139 -0.20253,52.32139 -0.11233,0 -20.6937,-35.24002 -45.73638,-78.3112 l 2.8e-4,0 z"
       id="path4285"
       inkscape:connector-curvature="0" />
    <path
       style="opacity:1;fill:#00cd00;fill-opacity:0.34265735;stroke:none;stroke-width:2;stroke-linecap:square;stroke-miterlimit:4;stroke-dasharray:none;stroke-dashoffset:0;stroke-opacity:1"
       d="m 1006.4518,856.0211 -48.00637,-27.62519 0.16898,-55.60519 0.16898,-55.60518 47.80081,-27.75477 c 27.0727,-15.71934 48.1614,-27.53673 48.6323,-27.25196 0.4574,0.27655 21.9381,12.68834 47.735,27.58177 l 46.9033,27.07895 0,55.79232 0,55.7923 -46.9026,27.12874 c -25.7964,14.92081 -47.2607,27.34578 -47.6983,27.61107 -0.4377,0.26529 -22.3986,-11.949 -48.8021,-27.14286 z"
       id="path4287"
       inkscape:connector-curvature="0" />
    <path
       style="opacity:1;fill:#00cd00;fill-opacity:0.34265735;stroke:none;stroke-width:2;stroke-linecap:square;stroke-miterlimit:4;stroke-dasharray:none;stroke-dashoffset:0;stroke-opacity:1"
       d="m 1152.712,772.68162 0,-53.97883 1.6071,0.84468 c 4.9659,2.60995 91.982,52.99673 91.8116,53.16363 -0.2235,0.21902 -90.0383,52.14018 -92.1311,53.26024 -1.2354,0.66115 -1.2876,-1.50164 -1.2876,-53.28972 z"
       id="path4289"
       inkscape:connector-curvature="0" />
    <path
       style="opacity:1;fill:#00cd00;fill-opacity:0.34265735;stroke:none;stroke-width:2;stroke-linecap:square;stroke-miterlimit:4;stroke-dasharray:none;stroke-dashoffset:0;stroke-opacity:1"
       d="m 958.42625,660.17601 0,-53.6961 4.21141,2.38657 c 22.30484,12.63995 88.59164,51.03803 88.58564,51.31514 -0.01,0.34917 -90.68222,52.98225 -92.08608,53.45238 -0.46758,0.15659 -0.71097,-18.14423 -0.71097,-53.45799 z"
       id="path4291"
       inkscape:connector-curvature="0" />
    <path
       style="opacity:1;fill:#00cd00;fill-opacity:0.34265735;stroke:none;stroke-width:2;stroke-linecap:square;stroke-miterlimit:4;stroke-dasharray:none;stroke-dashoffset:0;stroke-opacity:1"
       d="m 958.42625,885.19978 0,-53.67231 4.16791,2.36279 c 23.58199,13.36865 88.64484,51.0156 88.64364,51.29136 0,0.30249 -90.51615,52.76648 -92.22008,53.45238 -0.32531,0.131 -0.59147,-23.91444 -0.59147,-53.43422 z"
       id="path4293"
       inkscape:connector-curvature="0" />
    <path
       style="opacity:1;fill:#006200;fill-opacity:0.34265735;stroke:none;stroke-width:2;stroke-linecap:square;stroke-miterlimit:4;stroke-dasharray:none;stroke-dashoffset:0;stroke-opacity:1"
       d="m 1103.6048,687.0447 c -25.2411,-14.56392 -45.8928,-26.66456 -45.8928,-26.89033 0,-0.54925 91.5326,-53.67821 91.8801,-53.33068 0.1495,0.14952 0.1895,24.21838 0.089,53.48635 l -0.1831,53.21451 -45.8929,-26.47985 z"
       id="path4295"
       inkscape:connector-curvature="0" />
    <path
       style="opacity:1;fill:#006200;fill-opacity:0.34265735;stroke:none;stroke-width:2;stroke-linecap:square;stroke-miterlimit:4;stroke-dasharray:none;stroke-dashoffset:0;stroke-opacity:1"
       d="m 1103.965,912.15475 c -25.4358,-14.63879 -46.2483,-26.7822 -46.25,-26.98535 0,-0.20315 20.6487,-12.30289 45.8898,-26.8883 l 45.8929,-26.51892 0.5373,5.10258 c 0.2956,2.80642 0.4563,26.88334 0.3572,53.50428 l -0.1802,48.40176 -46.247,-26.61605 z"
       id="path4297"
       inkscape:connector-curvature="0" />
    <path
       style="opacity:1;fill:#006200;fill-opacity:0.34265735;stroke:none;stroke-width:2;stroke-linecap:square;stroke-miterlimit:4;stroke-dasharray:none;stroke-dashoffset:0;stroke-opacity:1"
       d="m 909.0277,799.9385 c -34.12362,-19.61121 -45.96828,-26.74767 -45.35715,-27.32789 1.33966,-1.27192 91.30442,-53.26122 91.61987,-52.94576 0.15832,0.15831 0.20542,24.25672 0.10469,53.55203 l -0.18315,53.26421 -46.18426,-26.54259 z"
       id="path4299"
       inkscape:connector-curvature="0" />
    <path
       style="opacity:1;fill:#002b00;fill-opacity:0.34265735;stroke:none;stroke-width:2;stroke-linecap:square;stroke-miterlimit:4;stroke-dasharray:none;stroke-dashoffset:0;stroke-opacity:1"
       d="m 1052.3523,881.45491 c -8.6807,-4.37411 -91.31585,-51.46406 -92.99589,-52.99411 -0.65873,-0.59992 -0.74089,-13.50675 -0.35715,-56.10167 l 0.49842,-55.32249 22.5,-13.07496 c 32.33882,-18.7924 63.95392,-36.82906 68.95702,-39.34054 l 4.3141,-2.16562 47.2766,27.25591 47.2766,27.25591 -0.1622,55.70953 -0.1621,55.70952 -45.3572,26.28733 c -24.9464,14.45803 -46.1618,26.72208 -47.1453,27.25347 -1.5671,0.84668 -2.1412,0.78829 -4.6429,-0.47228 z"
       id="path4301"
       inkscape:connector-curvature="0" />
    <flowRoot
       xml:space="preserve"
       id="flowRoot4303"
       style="font-style:normal;font-weight:normal;font-size:40px;line-height:125%;font-family:sans-serif;letter-spacing:0px;word-spacing:0px;fill:#000000;fill-opacity:1;stroke:none;stroke-width:1px;stroke-linecap:butt;stroke-linejoin:miter;stroke-opacity:1"
       transform="translate(0,591.73229)"><flowRegion
         id="flowRegion4305"><rect
           id="rect4307"
           width="225.71428"
           height="54.285713"
           x="138.57143"
           y="379.20135" /></flowRegion><flowPara
         id="flowPara4309" /></flowRoot>    <path
       transform="matrix(0,1,-1,0,491.18218,567.68991)"
       d="M 376.68224,380.54769 207.85715,478.01891 39.032051,380.54769 39.032052,185.60526 207.85715,88.134048 376.68224,185.60526 Z"
       inkscape:randomized="0"
       inkscape:rounded="0"
       inkscape:flatsided="true"
       sodipodi:arg2="1.0471976"
       sodipodi:arg1="0.52359878"
       sodipodi:r2="168.8251"
       sodipodi:r1="194.94243"
       sodipodi:cy="283.07648"
       sodipodi:cx="207.85715"
       sodipodi:sides="6"
       id="path4315"
       style="opacity:1;fill:none;fill-opacity:0.07058824;stroke:#000000;stroke-width:2;stroke-linecap:square;stroke-miterlimit:4;stroke-dasharray:none;stroke-dashoffset:0;stroke-opacity:1"
       sodipodi:type="star" />
    <text
       xml:space="preserve"
       style="font-style:normal;font-weight:normal;font-size:40px;line-height:125%;font-family:sans-serif;letter-spacing:0px;word-spacing:0px;fill:#000000;fill-opacity:1;stroke:none;stroke-width:1px;stroke-linecap:butt;stroke-linejoin:miter;stroke-opacity:1"
       x="137.93968"
       y="1029.6636"
       id="text4317"
       sodipodi:linespacing="125%"><tspan
         sodipodi:role="line"
         id="tspan4319"
         x="137.93968"
         y="1029.6636">r &lt; 1/3</tspan></text>
    <flowRoot
       xml:space="preserve"
       id="flowRoot4321"
       style="font-style:normal;font-weight:normal;font-size:40px;line-height:125%;font-family:sans-serif;letter-spacing:0px;word-spacing:0px;fill:#000000;fill-opacity:1;stroke:none;stroke-width:1px;stroke-linecap:butt;stroke-linejoin:miter;stroke-opacity:1"
       transform="translate(189.86801,597.85412)"><flowRegion
         id="flowRegion4323"><rect
           id="rect4325"
           width="171.72594"
           height="94.954338"
           x="579.82758"
           y="391.93954" /></flowRegion><flowPara
         id="flowPara4327">r = 1/3</flowPara></flowRoot>    <path
       style="fill:none;fill-rule:evenodd;stroke:#000000;stroke-width:2;stroke-linecap:butt;stroke-linejoin:miter;stroke-miterlimit:4;stroke-dasharray:none;stroke-opacity:1"
       d="m 470.14636,959.42817 0,24.24366 739.43154,0 0,-24.20305"
       id="path4333"
       inkscape:path-effect="#path-effect4335"
       inkscape:original-d="m 470.14636,959.42817 0,24.24366 739.43154,0 0,-24.20305"
       inkscape:connector-curvature="0"
       sodipodi:nodetypes="cccc" />
  </g>
</svg>
